<svg xmlns="http://www.w3.org/2000/svg" width="19" height="14" viewBox="0 0 19 14">
  <defs>
    <style>
      .cls-1 {
        fill: #6d0fae;
        fill-rule: evenodd;
      }
    </style>
  </defs>
  <path class="cls-1" d="M18.724,7.784A5.484,5.484,0,0,1,17.906,9.9a4.739,4.739,0,0,1-1.841,1.538c0,0.192,0,.385.2,0.385,0,0.192,0,.385.2,0.385,0,0.192.2,0.192,0.2,0.384a0.2,0.2,0,0,1,.2.192l0.2,0.192h0l0.2,0.192h0v0.192h0v0.192l-0.2.192a9.375,9.375,0,0,1-1.023-.192A6.538,6.538,0,0,1,13.406,12.4c-0.614,0-1.227.192-1.841,0.192a9.522,9.522,0,0,1-4.7-1.346H7.678a7.4,7.4,0,0,0,3.068-.384,5.514,5.514,0,0,0,2.659-1.154,6.813,6.813,0,0,0,2.046-2.115,4.351,4.351,0,0,0,.614-2.307,3.092,3.092,0,0,0-.2-1.346,7.946,7.946,0,0,1,2.045,1.538A5.244,5.244,0,0,1,18.724,7.784Zm-4.909-5a4.37,4.37,0,0,1,1.023,2.5,3.914,3.914,0,0,1-1.023,2.5,12.725,12.725,0,0,1-2.454,1.73,11.328,11.328,0,0,1-3.682.577A5.385,5.385,0,0,1,6.042,9.9a12.806,12.806,0,0,1-2.864,1.346H2.155l-0.2-.192V10.86h0c0.2,0,.2,0,0.2-0.192h0l0.2-.192a0.753,0.753,0,0,1,.409-0.385,0.192,0.192,0,0,1,.2-0.192,0.66,0.66,0,0,1,.2-0.384,0.66,0.66,0,0,1,.2-0.385A18.136,18.136,0,0,1,1.337,7.4,3.7,3.7,0,0,1,.724,5.285a4.369,4.369,0,0,1,1.023-2.5A12.711,12.711,0,0,1,4.2,1.055,10.1,10.1,0,0,1,7.678.479a11.318,11.318,0,0,1,3.682.577A12.709,12.709,0,0,1,13.815,2.785Z"/>
</svg>
