<svg xmlns="http://www.w3.org/2000/svg" width="40" height="25" viewBox="0 0 40 25">
  <defs>
    <style>
      .cls-1 {
        fill: #02baab;
        fill-rule: evenodd;
      }
    </style>
  </defs>
  <path class="cls-1" d="M29.091,7.017A12.015,12.015,0,0,0,25,1.754,10.717,10.717,0,0,0,18.636,0c-3.182,0-5.454.877-7.273,3.07C9.091,4.823,8.182,7.017,8.182,10.087V11.4H7.273c-2.273,0-4.091.439-5,2.193C0.454,14.474,0,16.229,0,18.421c0,1.755.455,3.07,2.273,4.824a7.42,7.42,0,0,0,5,1.755h10V17.543H13.182L20,8.772l7.273,8.771H22.727V25h7.727a9.429,9.429,0,0,0,6.818-2.632A8.51,8.51,0,0,0,40,16.229a8.768,8.768,0,0,0-2.727-6.58,9.43,9.43,0,0,0-6.818-2.632H29.091Z"/>
</svg>
