<svg xmlns="http://www.w3.org/2000/svg" width="35" height="32" viewBox="0 0 35 32">
  <defs>
    <style>
      .cls-1 {
        fill: #02baab;
        fill-rule: evenodd;
      }
    </style>
  </defs>
  <path class="cls-1" d="M35,7.253v2.56c0,1.28,0,2.133-.864,2.987a7.657,7.657,0,0,1-2.161,2.986,17.034,17.034,0,0,1-3.889,1.706c-1.3.854-2.593,0.854-4.321,1.28A9.4,9.4,0,0,1,21.6,20.48a2.207,2.207,0,0,0-.864,1.706,2.04,2.04,0,0,0-.432,1.707,1.447,1.447,0,0,0,.864,1.707c0,0.853.864,0.853,1.728,0.853a3.946,3.946,0,0,1,3.025,1.28,2.342,2.342,0,0,1,1.3,2.133v1.28a0.421,0.421,0,0,1-.432.426c0,0.427,0,.427-0.432.427H8.642L8.21,31.573V29.867a2.342,2.342,0,0,1,1.3-2.133,3.753,3.753,0,0,1,2.593-1.28c0.864,0,1.728,0,2.161-.853a2.208,2.208,0,0,0,.864-1.707,9.582,9.582,0,0,0-.432-1.707,5.894,5.894,0,0,0-1.3-1.706l-1.728-1.707c-1.728-.426-3.457-0.426-4.753-1.28a25.771,25.771,0,0,1-3.457-1.706A5.756,5.756,0,0,1,.864,12.8,6.112,6.112,0,0,1,0,9.813V7.253C0,6.826.432,6.4,0.432,5.973A3.291,3.291,0,0,1,2.16,5.12H8.21V3.413A4.536,4.536,0,0,1,9.074.853,6.194,6.194,0,0,1,11.667,0h12.1a3.322,3.322,0,0,1,2.16.854,3.028,3.028,0,0,1,1.3,2.56V5.12h6.049a2.291,2.291,0,0,1,1.3.853A1.555,1.555,0,0,1,35,7.253Zm-2.593,2.56V8.107H27.222a24.653,24.653,0,0,1-1.728,7.68,11.835,11.835,0,0,0,5.185-2.56C31.975,11.946,32.407,11.093,32.407,9.813Zm-22.9,5.973a23.883,23.883,0,0,1-1.3-7.68H2.593V9.813c0,1.28.864,2.133,2.161,3.413A10.34,10.34,0,0,0,9.506,15.787Z"/>
</svg>
