<svg xmlns="http://www.w3.org/2000/svg" width="14" height="13" viewBox="0 0 14 13">
  <defs>
    <style>
      .cls-1 {
        fill: #02baab;
        fill-rule: evenodd;
      }
    </style>
  </defs>
  <path class="cls-1" d="M8.985,3.7A4.717,4.717,0,0,1,7.012,2.152a1.817,1.817,0,0,0-.74-0.714A1.5,1.5,0,0,0,5.286.962C4.546,0.724,3.437,1.2,2.08,2.271l-1.356.476,2.589,9.994H4.793L3.56,7.863C4.793,6.792,5.779,6.316,6.519,6.554a1.357,1.357,0,0,1,.863.357,0.6,0.6,0,0,1,.493.238,0.261,0.261,0,0,0,.247.238,1.357,1.357,0,0,0,.863.357,2.013,2.013,0,0,0,.986-0.357,15.269,15.269,0,0,0,3.7-3.926V3.1H13.3A7.607,7.607,0,0,1,8.985,3.7Z"/>
</svg>
