<svg xmlns="http://www.w3.org/2000/svg" width="61" height="56" viewBox="0 0 61 56">
  <defs>
    <style>
      .cls-1 {
        fill: #fff;
        fill-rule: evenodd;
      }
    </style>
  </defs>
  <path class="cls-1" d="M60.4,10.35V14.8a11.3,11.3,0,0,1-4.516.636c0,0.636-.645,1.272-0.645,1.908a25.645,25.645,0,0,1,1.29,4.453h0l-3.871,1.908s-0.645,0-1.29-1.272c-1.29-1.272-1.29-1.908-1.936-1.908H47.5a7.869,7.869,0,0,0-1.29,1.908c-1.29,1.272-1.29,1.272-1.935,1.272L40.4,21.8h0a10.982,10.982,0,0,1,1.935-4.453c-0.645-.636-0.645-1.272-1.29-1.908a11.3,11.3,0,0,1-4.516-.636V10.35c0-.636,1.29-0.636,4.516-1.272l1.29-1.272C41.049,5.261,40.4,3.989,40.4,3.352h0a2.262,2.262,0,0,1,1.29-.636c0.645-.636,1.29-0.636,1.935-1.272A0.626,0.626,0,0,0,44.275.808c0.645,0,.645.636,1.935,1.908A3.367,3.367,0,0,1,47.5,4.625h1.935c1.29-1.272,1.936-2.544,3.226-3.817a29.554,29.554,0,0,1,3.871,2.544h0c0,0.636-.645,1.908-1.29,4.453,0,0.636.645,0.636,0.645,1.272C59.113,9.714,60.4,9.714,60.4,10.35Zm0,31.807v4.453a11.307,11.307,0,0,1-4.516.636c0,0.636-.645,1.272-0.645,1.908a25.645,25.645,0,0,1,1.29,4.453h0l-3.871,1.908s-0.645,0-1.29-1.272c-1.29-.636-1.29-1.908-1.936-1.908H47.5a9.145,9.145,0,0,1-1.29,1.908c-1.29,1.272-1.29,1.272-1.935,1.272L40.4,53.608h0a10.982,10.982,0,0,1,1.935-4.453c-0.645-.636-0.645-1.272-1.29-1.908a11.306,11.306,0,0,1-4.516-.636V42.157c0-.636,1.29-0.636,4.516-1.272l1.29-1.272C41.049,37.068,40.4,35.8,40.4,35.16h0a2.262,2.262,0,0,1,1.29-.636c0.645-.636,1.29-0.636,1.935-1.272a0.626,0.626,0,0,0,.645-0.636c0.645,0,.645.636,1.935,1.908a3.367,3.367,0,0,1,1.29,1.908h1.935c1.29-1.272,1.936-2.544,3.226-3.817a29.553,29.553,0,0,1,3.871,2.544h0c0,0.636-.645,1.908-1.29,4.453,0,0.636.645,0.636,0.645,1.272C59.113,41.521,60.4,41.521,60.4,42.157Zm-20-16.54v6.362H39.758L34.6,33.251a2.316,2.316,0,0,1-.645,1.908,13.292,13.292,0,0,0,2.581,3.817,0.636,0.636,0,1,1,0,1.272c0,0.636-1.29,1.272-2.581,2.545S32.016,44.7,31.371,44.7H30.726L27.5,41.521c-0.645.636-1.936,0.636-2.581,1.272a35.4,35.4,0,0,1-.645,4.453,1.378,1.378,0,0,1-1.29,1.272H17.177a0.626,0.626,0,0,0-.645-0.636V47.247l-0.645-4.453a4.92,4.92,0,0,1-2.581-1.272L9.435,44.7H8.145c-2.581-3.181-4.516-4.453-4.516-5.089a0.626,0.626,0,0,1,.645-0.636c0-.636.645-0.636,1.29-1.908,0.645-.636.645-1.272,1.29-1.908-0.645-.636-0.645-1.272-1.29-2.544l-4.516-.636H0.4v-7c0-.636,0-0.636.645-0.636l4.516-.636c0.645-.636.645-1.272,1.29-2.544L3.629,17.984V16.711a13.916,13.916,0,0,0,2.581-3.18L8.79,12.259H9.435L13.306,14.8c0.645,0,1.29-.636,2.581-0.636,0-2.544,0-3.817.645-5.089a0.629,0.629,0,0,1,.645-0.636h6.452l0.645,0.636,0.645,5.089c0.645,0,1.29.636,2.581,0.636l3.226-2.545h1.29c3.226,2.545,4.516,4.453,4.516,5.089v0.636l-1.29,1.272a7.868,7.868,0,0,1-1.29,1.909c0.645,1.272.645,1.908,1.29,2.544l4.516,0.636L40.4,24.982v0.636ZM52.662,12.259a4.8,4.8,0,0,0-1.29-2.544,4.917,4.917,0,0,0-2.581-1.272,4.963,4.963,0,0,0-3.226,1.272,4.8,4.8,0,0,0-1.29,2.544c0,1.273.645,1.909,1.29,3.181a4.965,4.965,0,0,0,3.226,1.272,4.919,4.919,0,0,0,2.581-1.272C52.017,14.167,52.662,13.531,52.662,12.259Zm0,31.807a4.8,4.8,0,0,0-1.29-2.544,4.92,4.92,0,0,0-2.581-1.272,4.965,4.965,0,0,0-3.226,1.272,4.8,4.8,0,0,0-1.29,2.544,4.824,4.824,0,0,0,1.29,3.181,4.965,4.965,0,0,0,3.226,1.272,4.92,4.92,0,0,0,2.581-1.272A4.824,4.824,0,0,0,52.662,44.066ZM26.21,33.888q1.936-1.909,1.935-5.725a10.164,10.164,0,0,0-1.935-5.725A10.5,10.5,0,0,0,20.4,20.529q-3.871,0-5.806,1.908c-1.29,1.908-2.581,3.817-2.581,5.725A8.015,8.015,0,0,0,14.6,33.888c1.29,1.908,3.226,2.544,5.806,2.544A7.934,7.934,0,0,0,26.21,33.888Z"/>
</svg>
