<svg xmlns="http://www.w3.org/2000/svg" width="18" height="15" viewBox="0 0 18 15">
  <defs>
    <style>
      .cls-1 {
        fill: #fff;
        fill-rule: evenodd;
      }
    </style>
  </defs>
  <path class="cls-1" d="M9.409,14.8C9.2,14.8,9.2,15,9,15a0.719,0.719,0,0,1-.409-0.2L2.25,8.8a0.2,0.2,0,0,1-.2-0.2A0.867,0.867,0,0,1,1.432,8C1.227,7.6,1.023,7.4.818,7A3.228,3.228,0,0,1,.2,5.8,2.488,2.488,0,0,1,0,4.6,4.341,4.341,0,0,1,1.227,1.2,4.875,4.875,0,0,1,4.7,0,4.083,4.083,0,0,1,6.136.2,1.128,1.128,0,0,1,7.159.8a4.477,4.477,0,0,1,1.023.6C8.386,1.6,8.8,1.8,9,2l0.614-.6c0.409-.2.614-0.4,1.023-0.6A1.783,1.783,0,0,1,11.864.2,2.65,2.65,0,0,1,13.091,0a4.875,4.875,0,0,1,3.477,1.2A4.433,4.433,0,0,1,18,4.6C18,6,17.182,7.4,15.545,9Z"/>
</svg>
