<svg xmlns="http://www.w3.org/2000/svg" width="23" height="23" viewBox="0 0 23 23">
  <defs>
    <style>
      .cls-1 {
        fill: #fff;
        fill-rule: evenodd;
      }
    </style>
  </defs>
  <path id="instagram" class="cls-1" d="M19.811,22.5H2.978A2.8,2.8,0,0,1,.172,19.7V2.887A2.8,2.8,0,0,1,2.978.084H19.811a2.8,2.8,0,0,1,2.806,2.8V19.7A2.8,2.8,0,0,1,19.811,22.5ZM11.394,6.95A4.347,4.347,0,0,0,7.45,9.472h0C7.439,9.488,7.434,9.5,7.427,9.521,7.386,9.613,7.35,9.707,7.315,9.8c-0.017.045-.035,0.09-0.05,0.136-0.032.1-.058,0.2-0.083,0.3-0.012.047-.026,0.093-0.036,0.141-0.023.106-.039,0.214-0.054,0.323-0.006.043-.015,0.086-0.02,0.131a4.349,4.349,0,1,0,8.646,0c0-.044-0.014-0.087-0.02-0.131-0.015-.109-0.031-0.217-0.054-0.323-0.01-.047-0.024-0.094-0.036-0.141-0.025-.1-0.052-0.2-0.084-0.3-0.015-.046-0.033-0.091-0.05-0.136-0.035-.1-0.072-0.189-0.113-0.281-0.007-.016-0.012-0.032-0.019-0.048h0A4.346,4.346,0,0,0,11.394,6.95Zm8.7-3.222a1.122,1.122,0,0,0-1.122-1.122H16.725A1.122,1.122,0,0,0,15.6,3.728V5.969a1.122,1.122,0,0,0,1.122,1.121h2.245a1.122,1.122,0,0,0,1.122-1.121V3.728Zm0,5.745H18.023a6.874,6.874,0,1,1-13.257,0H2.7v9.388a1.122,1.122,0,0,0,1.122,1.122h15.15a1.122,1.122,0,0,0,1.122-1.122V9.472Z"/>
</svg>
