<svg xmlns="http://www.w3.org/2000/svg" width="18" height="20" viewBox="0 0 18 20">
  <defs>
    <style>
      .cls-1 {
        fill: #fff;
        fill-rule: evenodd;
      }
    </style>
  </defs>
  <path class="cls-1" d="M17.089,12.249a3.38,3.38,0,0,1,.911,2.5,3.38,3.38,0,0,1-.911,2.5L15.494,19a2.8,2.8,0,0,1-2.278,1,2.8,2.8,0,0,1-2.278-1L8.658,16.5A3.38,3.38,0,0,1,7.747,14a3.042,3.042,0,0,1,.911-2.5l-0.911-1.25A3.072,3.072,0,0,1,5.468,11.5a3.857,3.857,0,0,1-2.278-1L0.911,7.749A3.043,3.043,0,0,1,0,5.249,2.837,2.837,0,0,1,.911,3L2.506,1A3.861,3.861,0,0,1,4.785,0,3.861,3.861,0,0,1,7.063,1l2.278,2.75A2.837,2.837,0,0,1,10.253,6a3.982,3.982,0,0,1-.911,2.75l0.911,1a2.8,2.8,0,0,1,2.278-1,2.8,2.8,0,0,1,2.279,1ZM8.2,6a1.34,1.34,0,0,0-.456-0.75l-2.278-2.5A0.791,0.791,0,0,0,4.785,2.5a0.791,0.791,0,0,0-.684.25L2.278,4.5a0.977,0.977,0,0,0-.228.75,1.292,1.292,0,0,0,.228,1l2.506,2.5C4.785,9,5.24,9,5.468,9a0.791,0.791,0,0,0,.684-0.25A0.239,0.239,0,0,0,5.924,8.5c0-.25,0-0.25-0.228-0.25V8l-0.228-.25v-0.5A0.976,0.976,0,0,1,5.7,6.5a1.03,1.03,0,0,1,.911-0.25H7.063L7.291,6.5l0.228,0.25L7.747,7A1.342,1.342,0,0,0,8.2,6Zm7.747,8.749A0.977,0.977,0,0,0,15.721,14L13.215,11.25A2.161,2.161,0,0,0,12.532,11a1.2,1.2,0,0,0-.683.5l0.228,0.25L12.3,12v0.25c0.228,0,.228,0,0.228.25v0.25c0,0.25,0,.75-0.228.75a1.154,1.154,0,0,1-.911.5H11.164l-0.228-.25a0.239,0.239,0,0,1-.228-0.25,0.231,0.231,0,0,1-.228-0.25A0.239,0.239,0,0,1,10.253,13,1.343,1.343,0,0,0,9.8,14a1.343,1.343,0,0,0,.456.75l2.278,2.5a1.2,1.2,0,0,0,.684.5,0.773,0.773,0,0,0,.684-0.5l1.823-1.75A0.977,0.977,0,0,0,15.949,14.749Z"/>
</svg>
