<svg xmlns="http://www.w3.org/2000/svg" width="31" height="31" viewBox="0 0 31 31">
  <defs>
    <style>
      .cls-1 {
        fill: #02baab;
        fill-rule: evenodd;
      }
    </style>
  </defs>
  <path class="cls-1" d="M18.835,2.746l-1.962.393L16.481,5.1,15.7,3.139l-1.57-.393,1.57-.784L16.481,0l0.392,1.962ZM31,14.519l-1.962.784-0.392,1.963L27.861,15.3,25.9,14.519l1.962-.393,0.785-1.963,0.392,1.963ZM15.3,6.279L11.38,7.455,10.2,10.987,9.025,7.455,5.494,6.279,9.025,5.1,10.2,1.569,11.38,5.1ZM6.671,2.746l-1.962.393L4.317,5.1,3.924,3.139,1.962,2.746l1.962-.784L4.317,0,4.709,1.962ZM30.215,6.279L5.886,30.608A1.371,1.371,0,0,0,5.1,31a1.72,1.72,0,0,1-1.177-.392L0.393,27.076A1.213,1.213,0,0,1,0,26.292c0-.785,0-1.177.393-1.177L24.722,1.176c0-.392.392-0.392,0.785-0.392a1.216,1.216,0,0,1,.785.392l3.924,3.532v1.57Zm-2.747-.785L25.506,3.531,20.013,9.025l1.962,1.962Z"/>
</svg>
