<svg xmlns="http://www.w3.org/2000/svg" width="13" height="13" viewBox="0 0 13 13">
  <defs>
    <style>
      .cls-1 {
        fill: #02baab;
        fill-rule: evenodd;
      }
    </style>
  </defs>
  <path class="cls-1" d="M5.52,7.479C3.74,5.7,3.205,4.452,3.562,4.1L3.74,3.918a2.494,2.494,0,0,0,.712-0.713,0.809,0.809,0,0,0,0-.89A3.506,3.506,0,0,0,3.74.89,2.459,2.459,0,0,0,3.205.178,0.859,0.859,0,0,0,2.493,0H1.959A0.552,0.552,0,0,0,1.6.178a0.622,0.622,0,0,0-.356.178L0.712,0.89l-0.356.356C0,1.781,0,2.849.534,4.452A28.021,28.021,0,0,0,3.74,9.26a28.046,28.046,0,0,0,4.808,3.206c1.6,0.534,2.671.534,3.205,0.178l0.356-.356a0.965,0.965,0,0,0,.356-0.534l0.356-.356A0.552,0.552,0,0,0,13,11.041V10.507a0.86,0.86,0,0,0-.178-0.712A2.455,2.455,0,0,0,12.11,9.26a1.887,1.887,0,0,0-1.069-.713,0.81,0.81,0,0,0-.89,0,0.78,0.78,0,0,0-.534.178L8.9,9.438C8.548,9.794,7.3,9.26,5.52,7.479Z"/>
</svg>
