<svg xmlns="http://www.w3.org/2000/svg" width="51" height="51" viewBox="0 0 51 51">
  <defs>
    <style>
      .cls-1 {
        fill: #fff;
        fill-rule: evenodd;
      }
    </style>
  </defs>
  <path class="cls-1" d="M51,39.913v2.956a2.716,2.716,0,0,0-.739,2.217c-0.739,1.478-2.217,2.218-4.435,3.7A11.921,11.921,0,0,1,39.174,51c-0.739,0-1.478-.739-2.217-0.739H34.739a2.289,2.289,0,0,0-1.478-.739,2.715,2.715,0,0,1-2.217-.739,2.581,2.581,0,0,1-1.478-.739,26.24,26.24,0,0,1-6.652-2.956C19.957,43.609,17,40.652,13.3,37.7c-2.956-3.7-5.913-6.652-7.391-9.609a26.251,26.251,0,0,1-2.957-6.652,2.579,2.579,0,0,1-.739-1.478c-0.739-1.478-.739-1.478-0.739-2.217a2.581,2.581,0,0,1-.739-1.478V14.044A2.716,2.716,0,0,1,0,11.826,11.92,11.92,0,0,1,2.217,5.174C3.7,2.956,4.435,1.478,5.913.739A2.716,2.716,0,0,0,8.13,0h3.7A8.086,8.086,0,0,1,13.3,2.956c0.739,0,.739.739,1.478,1.478s0.739,1.478,1.478,2.218C16.261,7.391,17,8.13,17,8.869l0.739,0.739c0,0.739.739,0.739,0.739,1.478v0.739a2.716,2.716,0,0,1-.739,2.217c-0.739.739-1.478,1.478-2.217,1.478L13.3,17.739a2.289,2.289,0,0,0-.739,1.478V20.7c0,0.739.739,0.739,0.739,1.478v0.739a78.544,78.544,0,0,0,6.652,8.13,32.816,32.816,0,0,0,8.13,5.913,0.724,0.724,0,0,0,.739.739c0.739,0,.739.739,1.478,0.739h1.478a2.289,2.289,0,0,0,1.478-.739c0.739-.739,1.478-1.478,1.478-2.218l2.218-2.217a2.715,2.715,0,0,1,2.217-.739h0.739a2.289,2.289,0,0,1,1.478.739L42.13,34c0.739,0,1.478.739,2.217,0.739,0,0.739,1.478.739,2.217,1.478a2.289,2.289,0,0,0,1.478.739C50.261,38.435,51,38.435,51,39.174v0.739Z"/>
</svg>
