<svg xmlns="http://www.w3.org/2000/svg" width="19" height="26" viewBox="0 0 19 26">
  <defs>
    <style>
      .cls-1 {
        fill: #fff;
        fill-rule: evenodd;
      }
    </style>
  </defs>
  <path id="pinterest" class="cls-1" d="M9.107,0.244c4.662-.07,7.581,1.816,8.955,5.125a8.853,8.853,0,0,1,.574,4.767c-0.145.666-.186,1.36-0.383,1.987A12,12,0,0,1,16.646,15.5a6.969,6.969,0,0,1-4.133,2.661,4.653,4.653,0,0,1-3.865-.834,1.783,1.783,0,0,1-.727-0.835H7.883a10.633,10.633,0,0,1-.5,1.986c-0.25.843-.3,1.715-0.612,2.5a16,16,0,0,1-1.225,2.423c-0.239.393-.9,1.733-1.378,1.748a0.54,0.54,0,0,1-.077-0.318,3.468,3.468,0,0,1-.115-0.993A6.092,6.092,0,0,1,3.9,21.857V21.022c0.123-.573.119-1.16,0.268-1.708,0.325-1.194.506-2.459,0.842-3.695,0.323-1.188.619-2.486,0.88-3.695a5.359,5.359,0,0,0-.344-1.351,5.459,5.459,0,0,1,.23-2.9c0.357-.874,1.4-2.21,2.755-1.868a2.262,2.262,0,0,1,1.416,2.94c-0.383,1.564-.88,2.964-1.225,4.529a1.99,1.99,0,0,0,.153,1.073,2.187,2.187,0,0,0,2.6,1.391c1.975-.5,2.849-2.283,3.444-4.212,0.161-.521.142-1.014,0.268-1.589a8.074,8.074,0,0,0-.229-3.973,5.146,5.146,0,0,0-3.33-3.02l-1.3-.238a6.711,6.711,0,0,0-2.6.238,6.366,6.366,0,0,0-4.4,3.933,7.065,7.065,0,0,0-.5,2.423L2.793,9.66a7.135,7.135,0,0,0,.536,2.145,3.651,3.651,0,0,1,.651.993,2.143,2.143,0,0,1-.191.794,4.409,4.409,0,0,1-.191.875c-0.249.452-.927,0.112-1.224-0.08-1.548-1-2.824-3.886-2.1-6.674A10.1,10.1,0,0,1,.535,6.522,9.973,9.973,0,0,1,4.9,1.4,10.214,10.214,0,0,1,7.615.443Z"/>
</svg>
