<svg xmlns="http://www.w3.org/2000/svg" width="44" height="36" viewBox="0 0 44 36">
  <defs>
    <style>
      .cls-1 {
        fill: #02baab;
        fill-rule: evenodd;
      }
    </style>
  </defs>
  <path class="cls-1" d="M2.2,2.116A7.789,7.789,0,0,0,0,7.939a7.79,7.79,0,0,0,2.2,5.824A8.988,8.988,0,0,0,8.25,16.41c2.2,0,3.3.53,3.85,2.118a22.875,22.875,0,0,1-.55,5.823,20.914,20.914,0,0,1-4.4,5.295A13.253,13.253,0,0,1,0,32.293V36a16.449,16.449,0,0,0,12.1-5.824A24.254,24.254,0,0,0,18.7,18a23.654,23.654,0,0,0-.55-12.706C15.95,1.587,12.65,0,8.25,0A8.466,8.466,0,0,0,2.2,2.116Zm24.2,0a7.788,7.788,0,0,0-2.2,5.823,7.79,7.79,0,0,0,2.2,5.824,7.2,7.2,0,0,0,6.05,2.646c1.65,0,2.75.53,3.3,2.118a7.407,7.407,0,0,1-.55,5.823,19.052,19.052,0,0,1-3.85,5.295,13.253,13.253,0,0,1-7.15,2.647V36c4.4,0,8.25-2.118,12.1-5.824A24.252,24.252,0,0,0,42.9,18C44,12.7,43.45,8.47,41.8,5.293,39.6,1.587,36.85,0,32.45,0,29.7,0,27.5.528,26.4,2.116Z"/>
</svg>
