<svg xmlns="http://www.w3.org/2000/svg" width="60" height="55" viewBox="0 0 60 55">
  <defs>
    <style>
      .cls-1 {
        fill: #fff;
        fill-rule: evenodd;
      }
    </style>
  </defs>
  <path class="cls-1" d="M60,0.7c0,5.57-.75,10.443-3,14.62q-2.25,6.266-9,12.532c-2.25,2.089-4.5,3.481-6.75,6.266L40.5,46.646a0.72,0.72,0,0,1-.75.7L25.5,55H24l-2.25-2.088c0-.7-0.75-0.7,0-1.393l3-9.05-10.5-9.747L4.5,35.506H3L0.75,33.417c-0.75-.7-0.75-0.7,0-1.392L9,18.8a0.7,0.7,0,0,1,.75-0.7l13.5-.7c2.25-2.089,4.5-4.874,6.75-6.266A63.98,63.98,0,0,1,42.75,2.088,53.438,53.438,0,0,1,58.5,0H60V0.7ZM51,13.228c0.75-.7.75-1.392,0.75-2.785A2.443,2.443,0,0,0,51,8.354a2.894,2.894,0,0,0-2.25-.7c-1.5,0-2.25,0-3,.7A2.443,2.443,0,0,0,45,10.443c0,1.392,0,2.089.75,2.785s1.5,0.7,3,.7A2.894,2.894,0,0,0,51,13.228Z"/>
</svg>
