<svg xmlns="http://www.w3.org/2000/svg" width="14" height="13" viewBox="0 0 14 13">
  <defs>
    <style>
      .cls-1 {
        fill: #02baab;
        fill-rule: evenodd;
      }
    </style>
  </defs>
  <path class="cls-1" d="M14,1.444A6.9,6.9,0,0,1,12.545,3.3V3.714a11.37,11.37,0,0,1-.182,2.476,14.542,14.542,0,0,1-1.091,2.476,21.6,21.6,0,0,1-1.636,2.27,9.477,9.477,0,0,1-2.364,1.444A6.757,6.757,0,0,1,4.363,13,7.676,7.676,0,0,1,0,11.349a0.994,0.994,0,0,0,.727.207,6.27,6.27,0,0,0,3.636-1.445,2.822,2.822,0,0,1-1.818-.619,4.62,4.62,0,0,1-.909-1.651H2.909A2.661,2.661,0,0,1,1.273,6.6,3.952,3.952,0,0,1,.545,4.539,3.876,3.876,0,0,0,2,4.952,2.28,2.28,0,0,1,.909,3.714,3.285,3.285,0,0,1,.545,2.27,2.53,2.53,0,0,1,1.091.619,7.754,7.754,0,0,0,3.636,3.095a9.564,9.564,0,0,0,3.273.826V3.3a3.042,3.042,0,0,1,.727-2.27A2.849,2.849,0,0,1,9.818,0a2.78,2.78,0,0,1,2,1.032A5.093,5.093,0,0,0,13.636.206a2.6,2.6,0,0,1-1.273,1.857A2.705,2.705,0,0,0,14,1.444Z"/>
</svg>
