<svg xmlns="http://www.w3.org/2000/svg" width="26" height="22" viewBox="0 0 26 22">
  <defs>
    <style>
      .cls-1 {
        fill: #fff;
        fill-rule: evenodd;
      }
    </style>
  </defs>
  <path id="twitter" class="cls-1" d="M17.6,0.735a5.145,5.145,0,0,1,4.044,1.679,8.038,8.038,0,0,0,2.621-.925l0.637-.364a5.361,5.361,0,0,1-1.66,2.512,2.45,2.45,0,0,1-.562.417V4.067a9.259,9.259,0,0,0,2.9-.82V3.26a8.551,8.551,0,0,1-1.735,2.083l-0.8.664a16,16,0,0,1-.237,3.437c-1.278,6.007-4.663,10.086-10.022,11.834a14.665,14.665,0,0,1-7.239.313,18.07,18.07,0,0,1-3.008-1.029,11.689,11.689,0,0,1-1.448-.781l-0.449-.286a7.948,7.948,0,0,0,1.635.065c0.5-.084,1-0.063,1.46-0.169a10.188,10.188,0,0,0,3.071-1.159,5.677,5.677,0,0,0,1.385-.951,4.147,4.147,0,0,1-1.523-.286A5.266,5.266,0,0,1,3.425,13.57a4.863,4.863,0,0,0,2.284-.1,3.653,3.653,0,0,1-1.673-.7A5.2,5.2,0,0,1,1.628,8.181l0.524,0.26a5.444,5.444,0,0,0,1.074.313,1.473,1.473,0,0,0,.7.065H3.9C3.642,8.505,3.222,8.3,2.963,7.959A5.65,5.65,0,0,1,1.815,3.1,6.385,6.385,0,0,1,2.364,1.71L2.389,1.724a3.23,3.23,0,0,0,.462.56A9.593,9.593,0,0,0,4.374,3.807,14.8,14.8,0,0,0,10.627,6.97a9.4,9.4,0,0,0,2.3.313,5.2,5.2,0,0,1,.025-2.513,5.221,5.221,0,0,1,2.9-3.593A5.993,5.993,0,0,1,16.98.813Z"/>
</svg>
