<svg xmlns="http://www.w3.org/2000/svg" width="29" height="28" viewBox="0 0 29 28">
  <defs>
    <style>
      .cls-1 {
        fill: #fff;
        fill-rule: evenodd;
      }
    </style>
  </defs>
  <path id="youtube" class="cls-1" d="M9.984,0L8.9,4.23H8.784L7.641,0H5.867L8.119,7.013v2.95H9.412V6.817L11.773,0H9.984Zm5.637,4.608A1.9,1.9,0,0,0,15,3.145a1.455,1.455,0,0,0-1.164-.684,1.677,1.677,0,0,0-1.308.652A1.813,1.813,0,0,0,11.9,4.561v3.27a2.1,2.1,0,0,0,.616,1.586A1.517,1.517,0,0,0,13.807,10a1.345,1.345,0,0,0,1.208-.568,2.054,2.054,0,0,0,.606-1.572V4.608Zm4.992-2.144H19.359V7.457a2.132,2.132,0,0,1-.481.423c-0.177.109-.322,0.632-0.437,0.632a0.237,0.237,0,0,1-.24-0.127,0.638,0.638,0,0,1-.1-0.4V2.464H16.851V8.523a1.67,1.67,0,0,0,.273,1.047c0.184,0.234.066,0.351,0.429,0.351a1.938,1.938,0,0,0,.907-0.25,6.542,6.542,0,0,0,.9-1.193V9.807h1.254V2.464Zm7.511,15.081a5.066,5.066,0,0,0-5.015-5.117H5.683A5.067,5.067,0,0,0,.667,17.545v4.737A5.068,5.068,0,0,0,5.683,27.4H23.109a5.068,5.068,0,0,0,5.015-5.117V17.545Zm-6.912,7.349a1.725,1.725,0,0,1-1.344-.54,2.125,2.125,0,0,1-.491-1.484V19.928a3.5,3.5,0,0,1,.54-1.959,1.876,1.876,0,0,1,1.39-.536,1.757,1.757,0,0,1,1.34.495,3.849,3.849,0,0,1,.467,2v1.244H20.687v1.66a1.479,1.479,0,0,0,.123.719,0.471,0.471,0,0,0,.431.2,0.517,0.517,0,0,0,.441-0.168,1.445,1.445,0,0,0,.127-0.747v-0.3h1.305V22.87a2.136,2.136,0,0,1-.478,1.518A1.866,1.866,0,0,1,21.212,24.894Zm0.6-4.74V19.919a4.265,4.265,0,0,0-.134-1.161,0.482,0.482,0,0,0-.422-0.18,0.5,0.5,0,0,0-.436.18,4.251,4.251,0,0,0-.131,1.161v0.234h1.122Zm-4.863,4.752a1.509,1.509,0,0,1-.684-0.148,1.691,1.691,0,0,1-.559-0.465v0.524H14.382V14.931h1.243v2.992a2.329,2.329,0,0,1,.637-0.478,1.253,1.253,0,0,1,.6-0.162,1.109,1.109,0,0,1,.947.438A2.1,2.1,0,0,1,18.142,19v4.4a1.765,1.765,0,0,1-.308,1.116A1.064,1.064,0,0,1,16.946,24.906Zm-0.035-5.829a0.9,0.9,0,0,0-.254-0.529,0.5,0.5,0,0,0-.408-0.176,0.59,0.59,0,0,0-.277.068,1.21,1.21,0,0,0-.347.21v4.868a1.361,1.361,0,0,0,.387.241,0.736,0.736,0,0,0,.316.074,0.416,0.416,0,0,0,.353-0.145,0.774,0.774,0,0,0,.23-0.473V19.076ZM11.834,24a3.375,3.375,0,0,1-.754.7,1.546,1.546,0,0,1-.759.215,0.807,0.807,0,0,1-.683-0.3,1.492,1.492,0,0,1-.269-0.908V17.451h1.268v5.791a0.589,0.589,0,0,0,.081.346,0.32,0.32,0,0,0,.269.107,0.963,0.963,0,0,0,.442-0.142,2.249,2.249,0,0,0,.483-0.362V17.451h1.23V24.9H11.834V24Zm-3.681.893H6.9V16.174H5.668V14.931H9.421v1.242H8.153v8.718ZM13.764,8.65a0.62,0.62,0,0,1-.476-0.176A0.681,0.681,0,0,1,13.12,7.98V4.5A0.524,0.524,0,0,1,13.3,4.09a0.674,0.674,0,0,1,.466-0.159,0.553,0.553,0,0,1,.423.159,0.506,0.506,0,0,1,.192.413V7.98a0.656,0.656,0,0,1-.188.494A0.524,0.524,0,0,1,13.764,8.65Z"/>
</svg>
