<svg xmlns="http://www.w3.org/2000/svg" width="18" height="18" viewBox="0 0 18 18">
  <defs>
    <style>
      .cls-1 {
        fill: #fff;
        fill-rule: evenodd;
      }
    </style>
  </defs>
  <path class="cls-1" d="M17.778,15.555A2,2,0,0,1,18,16.666a1.336,1.336,0,0,1-.222.889A2.345,2.345,0,0,1,16.667,18a1.155,1.155,0,0,1-.889-0.445L12,13.777A7.316,7.316,0,0,1,7.778,15.11a7.065,7.065,0,0,1-3.111-.444,6.3,6.3,0,0,1-2.444-1.778A6.621,6.621,0,0,1,.667,10.443,6.15,6.15,0,0,1,0,7.555,6.15,6.15,0,0,1,.667,4.666,6.623,6.623,0,0,1,2.222,2.221,9.889,9.889,0,0,1,4.667.443,13.129,13.129,0,0,1,7.778,0a13.021,13.021,0,0,1,2.889.444,9.893,9.893,0,0,1,2.444,1.778,6.623,6.623,0,0,1,1.556,2.445,6.149,6.149,0,0,1,.667,2.889A8.01,8.01,0,0,1,14,12ZM11.111,11.11a5.446,5.446,0,0,0,1.333-3.555,4.521,4.521,0,0,0-1.333-3.333A4,4,0,0,0,7.778,2.666,4.143,4.143,0,0,0,4.222,4.222,4.521,4.521,0,0,0,2.889,7.555,5.447,5.447,0,0,0,4.222,11.11a4.691,4.691,0,0,0,3.556,1.334A4.523,4.523,0,0,0,11.111,11.11Zm0-3.778V8.222H8.444v2.445a0.218,0.218,0,0,1-.222.222A0.218,0.218,0,0,1,8,11.11H7.333a0.218,0.218,0,0,1-.222-0.222,0.218,0.218,0,0,1-.222-0.222V8.222H4.222V6.888H6.889V4.443l0.222-.222L7.333,4H8L8.222,4.222,8.444,4.443V6.888h2.667V7.332Z"/>
</svg>
